<svg xmlns="http://www.w3.org/2000/svg" viewBox="0 0 400 400"><g fill-rule="evenodd"><path d="M251 84.2c-31.3 3.1-65.3 34.8-79.6 74.1-1 2.8-1.1 2.8 2 1.7 45.7-16 76 23.4 58.1 75.3-1 3-1 3 3 1.1 25.5-12.6 49.1-41 60.2-72.4 2.3-6.6 3.4-10.9 5-19.4.6-3.8.6-18.8 0-22.2a61.9 61.9 0 0 0-3.3-11.8c-6.8-18.4-24.2-28.5-45.4-26.4" fill="#04db6c"/><path d="M197.2 2.4c0 .2-.4.4-1 .4-.5 0-1 .2-1.2.4-.1.2-.7.4-1.2.4-.6 0-1 .2-1 .4s-.5.4-1.2.4-1.2.2-1.2.4-.5.4-1.2.4-1.2.2-1.2.4-.5.4-1.2.4-1.2.2-1.2.4-.5.4-1.2.4-1.2.2-1.2.4-.5.4-1.2.4-1.2.2-1.2.3c0 .2-1 .5-2 .7-1.1.1-2.5.4-3.1.7a31 31 0 0 1-4.5 1.5l-2.5.8c-.4.2-1 .4-1.5.4-.4 0-.9.2-1 .4-.1.2-.7.4-1.2.4s-1 .2-1.2.4c-.1.2-.7.4-1.2.4s-1 .2-1.2.4c-.1.2-.7.4-1.2.4-.6 0-1 .2-1 .4s-.5.4-1.2.4-1.2.2-1.2.4-.5.4-1.2.4-1.2.2-1.2.4-.5.4-1.2.4-1.2.2-1.2.4-.5.4-1.2.4-1.2.2-1.2.4-.5.4-1.2.4-1.2.2-1.2.4-.5.4-1.2.4c-.6 0-1.3.2-1.4.4-.1.2-.8.4-1.4.4-.7 0-1.2.2-1.2.4s-.5.4-1.2.4-1.2.2-1.2.4-.5.4-1.2.4-1.2.2-1.2.4-.5.4-1.2.4-1.2.2-1.2.4-.5.4-1.2.4-1.2.2-1.2.4-.5.4-1.2.4-1.2.2-1.2.4-.5.4-1 .4a8 8 0 0 0-2.5.6c-.8.3-1.8.6-2.3.6-.6 0-1 .2-1 .4s-.5.4-1.2.4-1.2.2-1.2.4-.5.4-1.2.4-1.2.2-1.2.4-.5.4-1.2.4-1.2.2-1.2.4-.5.4-1.2.4c-.6 0-1.3.2-1.4.4-.1.2-.7.4-1.1.4-.5 0-1.1.2-1.3.4l-1.5.5c-.6 0-1.1.2-1.1.4s-.5.3-1.2.3-1.2.2-1.2.4-.5.4-1.2.4-1.2.2-1.2.4-.5.4-1.2.4-1.2.2-1.2.4-.4.4-1 .4c-.5 0-1 .2-1.2.4-.1.2-.8.4-1.4.4-.7 0-1.2.2-1.2.4s-.5.4-1.2.4-1.2.2-1.2.4-.5.4-1 .4-1 .2-1 .4-.5.4-1.2.4-1.2.2-1.2.4-.5.4-1.2.4-1.2.2-1.2.4-.6.4-1.3.4c-1.6 0-3.4 1.5-5.5 4.6a28 28 0 0 1-1.6 2.2 27 27 0 0 0-3.2 4.8c0 .2-.2.4-.4.4s-.4.2-.4.5-.4.8-.8 1.1c-.4.3-.8.8-.8 1.1 0 .3-.5 1-1.2 1.7-.7.6-1.2 1.4-1.2 1.7 0 .3-.4.8-.8 1.1-.4.3-.8.7-.8.9 0 .2-.5.9-1.2 1.6-.7.7-1.2 1.4-1.2 1.6 0 .2-.5.9-1.2 1.6-.7.7-1.2 1.4-1.2 1.7 0 .2-.4.7-.8 1-.4.3-.7.7-.6.8.1.2-.4 1-1.2 1.9-.8.8-1.4 1.7-1.4 2 0 .2-.4.8-1 1.3-.5.5-1 1.2-1 1.6 0 .3-.4.9-.8 1.2-.4.3-.8.7-.8.9 0 .2-.5.9-1.2 1.6-.7.7-1.2 1.4-1.2 1.6 0 .2-.5.9-1.2 1.6-.7.7-1.2 1.4-1.2 1.7 0 .2-.4.7-.8 1-.4.3-.8.8-.8 1.1 0 .3-.5 1-1.2 1.7-.7.6-1.2 1.3-1.2 1.6 0 .2-.5.9-1 1.4-.5.6-1 1.2-1 1.4 0 .2-.5.8-1 1.4-.5.5-1 1.1-1 1.3 0 .2-.5.8-1 1.3s-1 1.2-1 1.5c0 .3-.5 1-1.2 1.8-.7.7-1.2 1.4-1.2 1.7 0 .2-.4.7-.8 1-.4.3-.8.8-.8 1 0 .4-.5 1.2-1.2 1.9s-1.2 1.4-1.2 1.6c0 .2-.4.8-1 1.3-.5.5-1.3 1.5-1.7 2.2-.4.7-.8 1.2-1 1.2-.2 0-.3.2-.3.4s-.5 1-1.2 1.7-1.2 1.4-1.2 1.6c0 .4-2.3 3.5-3 4-.2.2-.2.3 0 .3s0 .4-.4.8-.6.8-.4.8l-1 1.2c-.6.6-1.2 1.3-1.2 1.6 0 .2-.4.8-.8 1.3a19.8 19.8 0 0 0-3.2 4c0 .2-.5.9-1.2 1.6-.7.7-1.2 1.4-1.2 1.7 0 .2-.4.7-.8 1-.4.3-.8.8-.8 1 0 .3-.5 1-1.2 1.7s-1.2 1.5-1.2 1.8c0 .3-.4.8-.8 1.1-1.3 1-1.3 124.7 0 125.6.4.3.8.8.8 1.1 0 .3.5 1 1.2 1.7.7.6 1.2 1.4 1.2 1.7 0 .3.4.8.8 1.1.4.3.8.8.8 1 0 .3.5 1 1.2 1.7s1.2 1.5 1.2 1.7c0 .2.1.4.3.4.2 0 .6.5 1 1.2s1.2 1.7 1.7 2.2c.6.5 1 1.2 1 1.4 0 .3.5 1 1.1 1.5a5 5 0 0 1 1.2 1.7l.4.8c.2.1.9 1 1.5 2.1.7 1 1.3 1.9 1.5 1.9.2 0 .3.2.3.5s.5 1.1 1.2 1.8 1.2 1.4 1.2 1.6c0 .2.4.6.8.9.4.3.8.8.8 1 0 .3.5 1 1.2 1.7s1.2 1.4 1.2 1.6c0 .2.5 1 1.2 1.6.7.7 1.2 1.5 1.2 1.8 0 .3.4.8.8 1.1.4.3.8.8.8 1 0 .3.5 1 1.2 1.7l1.4 2c.1.4.6 1.1 1 1.5l.8 1c0 .3.5.9 1 1.4.5.6 1 1.2 1 1.4 0 .2.5.8 1 1.4.5.5 1 1.2 1 1.4 0 .3.5 1 1.2 1.6.7.6 1.2 1.4 1.2 1.7 0 .3.4.8.8 1.1.4.3.8.8.8 1 0 .2.5 1 1.2 1.7s1.2 1.4 1.2 1.6c0 .2.5.9 1.2 1.6.7.7 1.2 1.4 1.2 1.6 0 .2.4.6.8.9.4.3.8.9.8 1.2 0 .3.5 1 1 1.7.6.6 1 1.2 1 1.4 0 .2.5 1 1.2 1.6.7.7 1.2 1.5 1.2 1.8 0 .3.4.8.8 1.1.4.3.8.8.8 1 0 .3.5 1 1.2 1.7s1.2 1.5 1.2 1.7c0 .2.5.8 1.2 1.5.7.6 1.2 1.3 1.2 1.5 0 .2.4.7.8 1 .4.3.8.8.8 1.1 0 .3.5 1 1.2 1.7.7.6 1.2 1.3 1.2 1.6 0 .3.5 1 1.1 1.5a5 5 0 0 1 1.2 1.6c.1.7 3 4.7 3.4 4.8l.3.6c0 .3.4.8.8 1.1.4.3.8.8.8 1 0 1.2 3.6 4.2 5 4.2.8 0 1.4.2 1.4.4s.5.4 1.2.4 1.2.2 1.2.4.5.4 1.2.4 1.2.2 1.2.4.5.4 1 .4 1 .2 1 .4.5.4 1.2.4 1.2.2 1.2.4.5.4 1.2.4 1.2.2 1.2.4.5.4 1.2.4 1.2.2 1.2.4.5.4 1.2.4 1.2.2 1.2.4.5.4 1.2.4 1.2.2 1.2.4.5.4 1.2.4 1.2.1 1.2.3c0 .2.5.4 1 .4.7 0 1.3.3 1.6.5.2.2.8.4 1.3.4.4 0 1 .2 1.1.4.1.2.7.4 1.2.4s1 .2 1.2.4c.1.2.8.4 1.4.4.7 0 1.2.2 1.2.4s.5.4 1.2.4 1.2.2 1.2.4.5.4 1.2.4 1.2.2 1.2.4c0 .1 1 .4 2.2.6 1.2.1 2.2.4 2.2.6 0 .2.5.4 1.2.4s1.2.2 1.2.4.5.4 1.2.4 1.2.2 1.2.4.5.4 1.2.4 1.2.2 1.2.4.5.4 1.2.4 1.2.2 1.2.4.5.4 1.2.4 1.2.2 1.2.4.5.4 1.2.4 1.2.2 1.2.4.5.4 1.2.4 1.2.2 1.2.4.5.4 1.2.4c.6 0 1.3.2 1.4.4.1.2.8.4 1.4.4.7 0 1.2.2 1.2.4s.5.4 1.2.4 1.2.2 1.2.4.5.4 1.2.4 1.2.2 1.2.4.5.4 1.2.4 1.2.2 1.2.4.5.4 1.2.4 1.2.2 1.2.4.4.4 1 .4c.5 0 1 .2 1.2.4.1.2.7.4 1.2.4s1 .2 1.2.4c.1.2.7.4 1.2.4s1 .2 1.2.4c.1.2.7.4 1.2.4s1 .2 1.2.4c.1.2.6.4 1 .4.5 0 2.2.4 3.7 1 1.5.5 3.3 1 4 1 .6 0 1.1.2 1.1.4s.5.4 1.2.4 1.2.2 1.2.4.5.4 1.2.4 1.2.2 1.2.4.5.4 1.2.4 1.2.2 1.2.4.5.4 1.2.4 1.2.2 1.2.4.5.4 1.2.4 1.2.2 1.2.4.5.4 1.2.4 1.2.2 1.2.4.4.4 1 .4c.5 0 1 .2 1.2.4.1.2.7.4 1.2.4.6 0 1 .2 1 .4s1.3.4 3.2.4c2 0 3.2-.1 3-.4-.1-.2.3-.4 1-.4.6 0 1.3-.2 1.4-.4.1-.2.7-.4 1.2-.4s1-.2 1.2-.4c.1-.2.7-.4 1.2-.4.6 0 1-.2 1-.4s.5-.4 1.2-.4 1.2-.2 1.2-.4.5-.4 1.2-.4 1.2-.2 1.2-.4.5-.4 1.2-.4 1.2-.2 1.2-.4.5-.4 1.2-.4 1.2-.2 1.2-.4.5-.4 1.2-.4 1.2-.2 1.2-.4.5-.4 1.2-.4c1.2 0 4.4-1 5.7-1.6a4 4 0 0 1 1.7-.4c.5 0 1-.2 1.2-.4.1-.2.7-.4 1.2-.4s1-.2 1.2-.4c.1-.2.7-.4 1.2-.4s1-.2 1.2-.4c.1-.2.7-.4 1.2-.4s1-.2 1.2-.4c.1-.2.7-.4 1.2-.4.6 0 1-.2 1-.4s.5-.4 1.2-.4 1.2-.2 1.2-.4.5-.4 1.2-.4 1.2-.2 1.2-.4.5-.4 1.2-.4 1.2-.2 1.2-.4.5-.4 1.2-.4 1.2-.2 1.2-.4.5-.4 1.2-.4c.6 0 1.3-.2 1.4-.4.1-.2.8-.4 1.4-.4.7 0 1.2-.2 1.2-.4s.5-.4 1.2-.4 1.2-.2 1.2-.4.5-.4 1.2-.4 1.2-.2 1.2-.4.4-.4 1-.4c.5 0 1-.2 1.2-.4.1-.2.8-.4 1.4-.4.7 0 1.2-.2 1.2-.4s.5-.4 1.2-.4 1.2-.2 1.2-.4.5-.4 1.2-.4 1.2-.2 1.2-.4.5-.4 1.2-.4 1.2-.2 1.2-.4 1-.5 2.2-.6c1.2-.2 2.2-.5 2.2-.6 0-.2.5-.4 1.2-.4s1.2-.2 1.2-.4.5-.4 1.2-.4 1.2-.2 1.2-.4.3-.4.6-.4c.8 0 5.6-1.5 6.7-2 .4-.2 1.1-.4 1.7-.4.5 0 1-.2 1-.4s.4-.4 1-.4c.5 0 1-.2 1.2-.4.1-.2.8-.4 1.4-.4.7 0 1.2-.2 1.2-.4s.5-.4 1.2-.4 1.2-.2 1.2-.4.4-.4 1-.4c.5 0 1-.2 1.2-.4.1-.2.8-.4 1.4-.4.7 0 1.2-.2 1.2-.4s.6-.4 1.2-.4c.7 0 1.1-.2 1-.4-.1-.2.3-.4 1-.4.6 0 1.2-.2 1.2-.4s.5-.4 1.2-.4 1.2-.2 1.2-.4.5-.4 1.2-.4 1.2-.2 1.2-.4.6-.4 1.4-.4c1.4 0 3.8-2 5.2-4.3.4-.7 1-1.3 1-1.3.3 0 .4-.3.4-.6s.1-.6.3-.7c.5-.2 3.3-4.3 3.3-4.7 0-.3.5-1 1.2-1.6.7-.6 1.2-1.3 1.2-1.6 0-.3.5-1 1.2-1.6.7-.6 1.2-1.4 1.2-1.7 0-.3.4-.8.8-1.1.4-.3.8-.8.8-1 0-.4.1-.6.3-.6.2 0 .8-.7 1.3-1.5l2.1-2.7c.6-.6 1.1-1.3 1.1-1.6 0-.2.4-.7.8-1 .4-.3.8-.8.8-1.1 0-.3.4-1 1-1.5.6-.6 1-1.2 1-1.4 0-.2.4-.9 2-2.7.2-.2.4-.7.4-1 0-.3.4-.8.8-1.1.4-.3.8-.7.8-.9 0-.2.5-.9 1.2-1.6.7-.7 1.2-1.4 1.2-1.6 0-.2.5-1 1.2-1.6.7-.7 1.2-1.5 1.2-1.7 0-.2.4-.7.8-1 .4-.3.8-.8.8-1.1 0-.3.5-1 1.2-1.7.7-.6 1.2-1.3 1.2-1.6 0-.2.4-.9 1-1.4.6-.6 1-1.2 1-1.4 0-.2.2-.6.5-.9a30 30 0 0 0 3.5-4.8c0-.2.5-.9 1.2-1.6.7-.7 1.2-1.4 1.2-1.7 0-.2.4-.7.8-1 .4-.3.8-.8.8-1 0-.4.5-1.2 1.2-1.9s1.2-1.4 1.2-1.6c0-.2.5-.9 1.2-1.6.7-.7 1.2-1.4 1.2-1.6 0-.3.4-.8 2.5-3.2.6-.7 1-1.4 1-1.6l.6-.8c1-1 3.5-4.7 3.5-5.1 0-.3.5-1 1.2-1.6.7-.6 1.2-1.3 1.2-1.6 0-.2.4-.9.9-1.4 1.5-1.5 2.3-2.6 2.3-3 0-.2.2-.4.4-.4s.4-.2.4-.4.5-1 1.2-1.7 1.2-1.4 1.2-1.7c0-.2.4-.7.8-1 .4-.3.8-.8.8-1 0-.4.5-1.2 1.2-1.9s1.2-1.4 1.2-1.7c0-.2.4-.7.8-1 .8-.6.8-1 .8-62.8s0-62.2-.8-62.8c-.4-.3-.8-.8-.8-1 0-.2-.5-1-1.2-1.8a5.9 5.9 0 0 1-1.2-1.8c0-.2-.4-.7-.8-1-.4-.3-.8-.8-.8-1 0-.3-.5-1-1.2-1.7a5.8 5.8 0 0 1-1.2-1.6c0-.3-1.1-1.7-3-3.8-.6-.6-1-1.3-1-1.5 0-.3-.5-1-1.2-1.6a5 5 0 0 1-1.2-1.4c0-.4-2.9-4.8-3.3-5-.2 0-.3-.3-.3-.6s-.5-1-1.2-1.7-1.2-1.5-1.2-1.7c0-.2-.1-.4-.3-.4-.2 0-.6-.5-1-1.2s-1.2-1.7-1.7-2.2c-.6-.5-1-1.1-1-1.3 0-.2-.5-1-1.2-1.6-.7-.7-1.2-1.5-1.2-1.8 0-.3-.4-.8-.8-1.1-.4-.3-.8-.8-.8-1 0-.3-.5-1-1.2-1.7s-1.2-1.5-1.2-1.7c0-.3-.5-1-1.1-1.8a21 21 0 0 1-3-3.9c-.2-.5-.8-1.2-1.2-1.5-.4-.4-.7-1-.7-1.2 0-.3-.5-1-1.2-1.6-.7-.6-1.2-1.4-1.2-1.7 0-.3-.4-.8-.8-1.1-.4-.3-.8-.8-.8-1 0-.3-.5-1-1.2-1.7a5.4 5.4 0 0 1-1.2-1.6c0-.2-.5-1-1.2-1.6A5.7 5.7 0 0 1 344 76c0-.2-.4-.6-.8-.9-.4-.3-.8-.9-.8-1.3s-.1-.7-.3-.7c-.2 0-1-1-1.9-2.4-.9-1.3-1.7-2.4-1.9-2.4-.2 0-.3-.3-.3-.7 0-.4-.4-1-.8-1.3-.4-.3-.8-.8-.8-1 0-.2-.5-1-1.2-1.7a5.8 5.8 0 0 1-1.2-1.6c0-.2-.5-.9-1.2-1.6a5.6 5.6 0 0 1-1.2-1.6c0-.2-.4-.6-.8-.9-.4-.3-.8-.8-.8-1.1 0-.3-.5-1-1.2-1.7-.7-.6-1.2-1.4-1.2-1.7 0-.3-.4-.8-.8-1.1-.4-.3-.8-.8-.8-1 0-.2-.5-1-1.2-1.8a6.2 6.2 0 0 1-1.2-1.8 4 4 0 0 0-.9-1.4l-2.3-3c-1.6-2.4-3-3.8-3.6-3.8a.4.4 0 0 1-.4-.4c0-.2-.6-.4-1.4-.4-.8 0-1.4-.2-1.4-.4s-.5-.4-1.2-.4-1.2-.2-1.2-.4-.5-.4-1.2-.4-1.2-.2-1.2-.4-.4-.4-1-.4c-.5 0-1-.2-1.2-.4-.1-.2-.7-.4-1.2-.4-.6 0-1-.2-1-.4s-.5-.4-1.2-.4-1.2-.2-1.2-.4-.5-.4-1.2-.4-1.2-.2-1.2-.4-.5-.4-1.2-.4-1.2-.2-1.2-.4-.5-.4-1.2-.4-1.2-.2-1.2-.4-.5-.4-1.2-.4-1.2-.1-1.2-.3c0-.2-.4-.4-.9-.4a6 6 0 0 1-1.7-.4c-1.3-.6-3.6-1.3-4.3-1.3-.4 0-.7-.2-.7-.4s-.5-.4-1.2-.4-1.2-.2-1.2-.4-.5-.4-1.2-.4-1.2-.2-1.2-.4-.5-.4-1.2-.4-1.2-.2-1.2-.4-.4-.4-1-.4c-.5 0-1.5-.3-2.3-.6a8 8 0 0 0-2.5-.6c-.5 0-1-.2-1-.4s-.5-.4-1.2-.4c-.6 0-1.3-.2-1.4-.4-.1-.2-.7-.4-1.2-.4-.6 0-1-.2-1-.4s-.5-.4-1.2-.4-1.2-.2-1.2-.4-.5-.4-1.2-.4-1.2-.2-1.2-.4-.5-.4-1.2-.4-1.2-.2-1.2-.4-.5-.4-1.2-.4c-.6 0-1.3-.2-1.4-.4-.1-.2-.8-.4-1.4-.4-.7 0-1.2-.2-1.2-.4s-.5-.4-1.2-.4-1.2-.2-1.2-.4-.5-.4-1.2-.4-1.2-.2-1.2-.4-.5-.4-1.2-.4-1.2-.2-1.2-.4-.5-.4-1.2-.4-1.2-.2-1.2-.4-.5-.4-1.2-.4-1.2-.2-1.2-.4-.4-.4-1-.4c-.5 0-1-.2-1.2-.4-.1-.2-.7-.4-1.2-.4s-1-.2-1.2-.4c-.1-.2-.8-.4-1.4-.4-.7 0-1.2-.2-1.2-.4s-.5-.4-1.2-.4-1.2-.2-1.2-.4-.3-.4-.7-.4c-.4 0-2.2-.5-4.1-1.2-1.9-.7-4.3-1.3-5.3-1.4-1-.2-1.9-.5-1.9-.7 0-.1-.5-.3-1.2-.3s-1.2-.2-1.2-.4-.5-.4-1.2-.4-1.2-.2-1.2-.4-.5-.4-1.2-.4-1.2-.2-1.2-.4-.5-.4-1.2-.4-1.2-.2-1.2-.4-.5-.4-1.2-.4-1.2-.2-1.2-.4-.4-.4-1-.4c-.5 0-1-.2-1.2-.4-.1-.2-.7-.4-1.2-.4s-1-.2-1.2-.4c-.1-.2-1.6-.4-3.2-.4-1.7 0-3 .2-3 .4m71 82.8a40.3 40.3 0 0 1 28.9 27.2c.8 2 1.6 5.2 2.6 10 .6 3.4.6 18.4 0 22.2-1.6 8.5-2.7 12.8-5 19.4-11 31.3-34.2 59.2-59.9 72.3-1.9 1-3.6 1.7-3.8 1.7-.4 0-1.4 1.8-1.4 2.5 0 1.1-6.3 14-10 20.5a175.4 175.4 0 0 1-15.4 21.4c-36.3 42.5-86.1 44.8-99.6 4.6a59 59 0 0 1-3.2-22.2c0-9.2.5-12.8 2.6-22a126.8 126.8 0 0 1 60.9-79.1c4.2-2 5.6-3 5.8-3.7 14.8-40 44-68.7 76.5-75.2a64 64 0 0 1 21 .4" fill="#4494db"/><path d="M164.2 164a124.8 124.8 0 0 0-55 63c-24.2 60.7 10.1 107 61 82.3a122 122 0 0 0 45.1-41.6 103 103 0 0 0 8.5-14.3c.7-1.2 5.7-12.3 6-13.3.2-1.2-.3-1.2-4.3.2-29.1 10.2-54.3-4.5-59.4-34.7-1.1-6.2-1.3-8.2-1.3-13.1a96.2 96.2 0 0 1 5.2-30.8c0-.4-1.7.2-5.8 2.3" fill="#fbbc24"/><path d="M187.4 156.8c-5.8.7-18.1 4-17.6 4.8 0 .1 0 .9-.2 1.6a50.9 50.9 0 0 0-1.6 5.8c-2 7-3.2 16.3-3.2 23.5 0 5 .2 6.9 1.3 13.1a51.3 51.3 0 0 0 9.3 22.4c11.4 14.8 30 19.3 50 12.3l4-1.1c1 0 3.4-6.8 5-14.2 9.4-41.5-11.7-72.2-47-68.2" fill="#fbfbbb"/></g></svg>