<svg id="svg" version="1.1" xmlns="http://www.w3.org/2000/svg" xmlns:xlink="http://www.w3.org/1999/xlink" width="400" height="400" viewBox="0, 0, 400,400"><g id="svgg"><path id="path0" d="M250.000 84.407 C 248.570 84.600,246.680 84.929,245.800 85.138 C 244.920 85.347,243.570 85.646,242.800 85.803 C 224.264 89.579,200.982 107.491,186.134 129.400 C 180.295 138.015,172.195 154.158,171.015 159.532 L 170.743 160.772 173.671 159.766 C 186.301 155.430,201.371 155.383,210.710 159.653 C 212.091 160.284,213.312 160.800,213.425 160.800 C 215.182 160.800,223.859 168.301,227.128 172.647 C 238.194 187.355,239.932 214.416,231.232 236.555 C 230.565 238.251,230.819 238.242,234.473 236.432 C 264.354 221.637,291.817 184.454,298.755 149.400 C 300.002 143.102,300.159 141.280,300.138 133.400 C 300.113 124.314,299.450 119.412,297.431 113.400 C 290.419 92.517,272.238 81.403,250.000 84.407 " stroke="none" fill="#04db6c" fill-rule="evenodd"></path><path id="path1" d="M197.200 2.400 C 197.200 2.620,196.761 2.800,196.224 2.800 C 195.687 2.800,195.136 2.980,195.000 3.200 C 194.864 3.420,194.313 3.600,193.776 3.600 C 193.239 3.600,192.800 3.780,192.800 4.000 C 192.800 4.220,192.260 4.400,191.600 4.400 C 190.940 4.400,190.400 4.580,190.400 4.800 C 190.400 5.020,189.860 5.200,189.200 5.200 C 188.540 5.200,188.000 5.380,188.000 5.600 C 188.000 5.820,187.460 6.000,186.800 6.000 C 186.140 6.000,185.600 6.180,185.600 6.400 C 185.600 6.620,185.060 6.800,184.400 6.800 C 183.740 6.800,183.200 6.980,183.200 7.200 C 183.200 7.420,182.660 7.600,182.000 7.600 C 181.340 7.600,180.800 7.757,180.800 7.948 C 180.800 8.140,179.872 8.420,178.737 8.571 C 177.603 8.721,176.165 9.108,175.542 9.430 C 174.918 9.752,174.318 10.017,174.208 10.019 C 174.098 10.021,173.782 10.086,173.504 10.164 C 173.227 10.242,172.190 10.524,171.200 10.792 C 170.210 11.059,169.087 11.440,168.705 11.639 C 168.323 11.838,167.659 12.000,167.229 12.000 C 166.799 12.000,166.336 12.180,166.200 12.400 C 166.064 12.620,165.524 12.800,165.000 12.800 C 164.476 12.800,163.936 12.980,163.800 13.200 C 163.664 13.420,163.124 13.600,162.600 13.600 C 162.076 13.600,161.536 13.780,161.400 14.000 C 161.264 14.220,160.713 14.400,160.176 14.400 C 159.639 14.400,159.200 14.580,159.200 14.800 C 159.200 15.020,158.660 15.200,158.000 15.200 C 157.340 15.200,156.800 15.380,156.800 15.600 C 156.800 15.820,156.260 16.000,155.600 16.000 C 154.940 16.000,154.400 16.180,154.400 16.400 C 154.400 16.620,153.860 16.800,153.200 16.800 C 152.540 16.800,152.000 16.980,152.000 17.200 C 152.000 17.420,151.460 17.600,150.800 17.600 C 150.140 17.600,149.600 17.780,149.600 18.000 C 149.600 18.220,149.060 18.400,148.400 18.400 C 147.740 18.400,147.200 18.580,147.200 18.800 C 147.200 19.020,146.671 19.200,146.024 19.200 C 145.377 19.200,144.736 19.380,144.600 19.600 C 144.464 19.820,143.823 20.000,143.176 20.000 C 142.529 20.000,142.000 20.180,142.000 20.400 C 142.000 20.620,141.460 20.800,140.800 20.800 C 140.140 20.800,139.600 20.980,139.600 21.200 C 139.600 21.420,139.060 21.600,138.400 21.600 C 137.740 21.600,137.200 21.780,137.200 22.000 C 137.200 22.220,136.660 22.400,136.000 22.400 C 135.340 22.400,134.800 22.580,134.800 22.800 C 134.800 23.020,134.260 23.200,133.600 23.200 C 132.940 23.200,132.400 23.380,132.400 23.600 C 132.400 23.820,131.860 24.000,131.200 24.000 C 130.540 24.000,130.000 24.180,130.000 24.400 C 130.000 24.620,129.557 24.800,129.015 24.800 C 128.473 24.800,127.168 25.135,126.115 25.544 C 125.062 25.953,123.975 26.208,123.700 26.110 C 123.425 26.013,123.200 26.128,123.200 26.367 C 123.200 26.605,122.660 26.800,122.000 26.800 C 121.340 26.800,120.800 26.980,120.800 27.200 C 120.800 27.420,120.260 27.600,119.600 27.600 C 118.940 27.600,118.400 27.780,118.400 28.000 C 118.400 28.220,117.961 28.400,117.424 28.400 C 116.887 28.400,116.336 28.580,116.200 28.800 C 116.064 29.020,115.434 29.200,114.800 29.200 C 114.166 29.200,113.536 29.380,113.400 29.600 C 113.264 29.820,112.749 30.000,112.256 30.000 C 111.763 30.000,111.181 30.179,110.962 30.398 C 110.744 30.616,110.078 30.836,109.482 30.885 C 108.887 30.934,108.400 31.115,108.400 31.287 C 108.400 31.459,107.860 31.600,107.200 31.600 C 106.540 31.600,106.000 31.780,106.000 32.000 C 106.000 32.220,105.460 32.400,104.800 32.400 C 104.140 32.400,103.600 32.580,103.600 32.800 C 103.600 33.020,103.060 33.200,102.400 33.200 C 101.740 33.200,101.200 33.380,101.200 33.600 C 101.200 33.820,100.761 34.000,100.224 34.000 C 99.687 34.000,99.136 34.180,99.000 34.400 C 98.864 34.620,98.223 34.800,97.576 34.800 C 96.929 34.800,96.400 34.980,96.400 35.200 C 96.400 35.420,95.860 35.600,95.200 35.600 C 94.540 35.600,94.000 35.780,94.000 36.000 C 94.000 36.220,93.550 36.400,93.000 36.400 C 92.450 36.400,92.000 36.580,92.000 36.800 C 92.000 37.020,91.460 37.200,90.800 37.200 C 90.140 37.200,89.600 37.380,89.600 37.600 C 89.600 37.820,89.060 38.000,88.400 38.000 C 87.740 38.000,87.200 38.180,87.200 38.400 C 87.200 38.620,86.605 38.800,85.878 38.800 C 84.327 38.800,82.506 40.324,80.381 43.400 C 79.622 44.500,78.893 45.490,78.763 45.600 C 78.213 46.064,75.600 50.026,75.600 50.396 C 75.600 50.618,75.420 50.800,75.200 50.800 C 74.980 50.800,74.800 51.030,74.800 51.312 C 74.800 51.593,74.440 52.083,74.000 52.400 C 73.560 52.717,73.200 53.225,73.200 53.528 C 73.200 53.831,72.660 54.583,72.000 55.200 C 71.340 55.817,70.800 56.569,70.800 56.872 C 70.800 57.175,70.440 57.683,70.000 58.000 C 69.560 58.317,69.200 58.719,69.200 58.892 C 69.200 59.065,68.660 59.772,68.000 60.463 C 67.340 61.154,66.800 61.874,66.800 62.063 C 66.800 62.252,66.260 62.972,65.600 63.663 C 64.940 64.354,64.400 65.122,64.400 65.371 C 64.400 65.620,64.050 66.076,63.621 66.385 C 63.193 66.693,62.922 67.074,63.019 67.231 C 63.116 67.388,62.571 68.210,61.807 69.058 C 61.043 69.906,60.414 70.794,60.409 71.030 C 60.404 71.267,59.950 71.883,59.400 72.400 C 58.850 72.917,58.400 73.628,58.400 73.981 C 58.400 74.335,58.040 74.883,57.600 75.200 C 57.160 75.517,56.800 75.919,56.800 76.092 C 56.800 76.265,56.260 76.972,55.600 77.663 C 54.940 78.354,54.400 79.074,54.400 79.263 C 54.400 79.452,53.860 80.172,53.200 80.863 C 52.540 81.554,52.000 82.322,52.000 82.571 C 52.000 82.820,51.640 83.283,51.200 83.600 C 50.760 83.917,50.400 84.425,50.400 84.728 C 50.400 85.031,49.860 85.783,49.200 86.400 C 48.540 87.017,48.000 87.727,48.000 87.979 C 48.000 88.230,47.550 88.886,47.000 89.436 C 46.450 89.986,46.000 90.600,46.000 90.800 C 46.000 91.000,45.550 91.614,45.000 92.164 C 44.450 92.714,44.000 93.320,44.000 93.512 C 44.000 93.704,43.550 94.283,43.000 94.800 C 42.450 95.317,42.000 95.980,42.000 96.273 C 42.000 96.567,41.460 97.372,40.800 98.063 C 40.140 98.754,39.600 99.522,39.600 99.771 C 39.600 100.020,39.240 100.483,38.800 100.800 C 38.360 101.117,38.000 101.609,38.000 101.892 C 38.000 102.175,37.460 102.972,36.800 103.663 C 36.140 104.354,35.600 105.080,35.600 105.278 C 35.600 105.475,35.163 106.073,34.629 106.607 C 34.095 107.141,33.336 108.123,32.943 108.789 C 32.549 109.455,32.086 110.000,31.914 110.000 C 31.741 110.000,31.600 110.182,31.600 110.404 C 31.600 110.626,31.060 111.372,30.400 112.063 C 29.740 112.754,29.200 113.483,29.200 113.683 C 29.200 114.077,26.854 117.213,26.200 117.694 C 25.980 117.856,25.963 117.991,26.162 117.994 C 26.361 117.997,26.198 118.360,25.800 118.800 C 25.402 119.240,25.213 119.600,25.380 119.600 C 25.548 119.600,25.126 120.122,24.442 120.760 C 23.759 121.399,23.200 122.125,23.200 122.375 C 23.200 122.624,22.840 123.227,22.400 123.714 C 20.297 126.042,19.200 127.406,19.200 127.693 C 19.200 127.866,18.660 128.572,18.000 129.263 C 17.340 129.954,16.800 130.722,16.800 130.971 C 16.800 131.220,16.440 131.683,16.000 132.000 C 15.560 132.317,15.200 132.780,15.200 133.029 C 15.200 133.278,14.660 134.046,14.000 134.737 C 13.340 135.428,12.800 136.225,12.800 136.508 C 12.800 136.791,12.440 137.283,12.000 137.600 C 10.737 138.510,10.737 262.290,12.000 263.200 C 12.440 263.517,12.800 264.025,12.800 264.328 C 12.800 264.631,13.340 265.383,14.000 266.000 C 14.660 266.617,15.200 267.369,15.200 267.672 C 15.200 267.975,15.560 268.483,16.000 268.800 C 16.440 269.117,16.800 269.580,16.800 269.829 C 16.800 270.078,17.340 270.846,18.000 271.537 C 18.660 272.228,19.200 272.974,19.200 273.196 C 19.200 273.418,19.341 273.600,19.514 273.600 C 19.686 273.600,20.149 274.145,20.543 274.811 C 20.936 275.477,21.695 276.459,22.229 276.993 C 22.763 277.527,23.200 278.170,23.200 278.421 C 23.200 278.673,23.695 279.358,24.300 279.943 C 24.905 280.529,25.459 281.274,25.532 281.600 C 25.605 281.926,25.792 282.284,25.949 282.396 C 26.106 282.508,26.767 283.455,27.417 284.499 C 28.068 285.544,28.735 286.399,28.900 286.399 C 29.065 286.400,29.200 286.643,29.200 286.941 C 29.200 287.238,29.740 288.046,30.400 288.737 C 31.060 289.428,31.600 290.135,31.600 290.308 C 31.600 290.481,31.960 290.883,32.400 291.200 C 32.840 291.517,33.200 291.980,33.200 292.229 C 33.200 292.478,33.740 293.246,34.400 293.937 C 35.060 294.628,35.600 295.348,35.600 295.537 C 35.600 295.726,36.140 296.446,36.800 297.137 C 37.460 297.828,38.000 298.625,38.000 298.908 C 38.000 299.191,38.360 299.683,38.800 300.000 C 39.240 300.317,39.600 300.780,39.600 301.029 C 39.600 301.278,40.121 302.027,40.758 302.693 C 41.395 303.359,42.029 304.262,42.168 304.700 C 42.307 305.137,42.776 305.816,43.210 306.209 C 43.645 306.602,44.000 307.084,44.000 307.280 C 44.000 307.476,44.450 308.086,45.000 308.636 C 45.550 309.186,46.000 309.800,46.000 310.000 C 46.000 310.200,46.450 310.814,47.000 311.364 C 47.550 311.914,48.000 312.570,48.000 312.821 C 48.000 313.073,48.540 313.783,49.200 314.400 C 49.860 315.017,50.400 315.769,50.400 316.072 C 50.400 316.375,50.760 316.883,51.200 317.200 C 51.640 317.517,52.001 317.962,52.002 318.188 C 52.003 318.415,52.543 319.175,53.202 319.878 C 53.861 320.581,54.401 321.301,54.402 321.478 C 54.403 321.655,54.943 322.375,55.602 323.078 C 56.261 323.781,56.800 324.507,56.800 324.690 C 56.800 324.873,57.160 325.283,57.600 325.600 C 58.040 325.917,58.400 326.454,58.400 326.792 C 58.400 327.131,58.850 327.893,59.400 328.487 C 59.950 329.080,60.400 329.726,60.400 329.923 C 60.400 330.120,60.940 330.846,61.600 331.537 C 62.260 332.228,62.800 333.025,62.800 333.308 C 62.800 333.591,63.160 334.083,63.600 334.400 C 64.040 334.717,64.400 335.180,64.400 335.429 C 64.400 335.678,64.940 336.446,65.600 337.137 C 66.260 337.828,66.800 338.559,66.800 338.762 C 66.800 338.966,67.340 339.642,68.000 340.265 C 68.660 340.888,69.200 341.583,69.200 341.810 C 69.200 342.038,69.560 342.483,70.000 342.800 C 70.440 343.117,70.800 343.625,70.800 343.928 C 70.800 344.231,71.340 344.983,72.000 345.600 C 72.660 346.217,73.200 346.937,73.200 347.200 C 73.200 347.463,73.695 348.158,74.300 348.743 C 74.905 349.329,75.446 350.034,75.503 350.312 C 75.635 350.960,78.421 354.958,78.864 355.133 C 79.049 355.207,79.200 355.482,79.200 355.745 C 79.200 356.008,79.560 356.483,80.000 356.800 C 80.440 357.117,80.800 357.593,80.800 357.857 C 80.800 359.007,84.434 362.000,85.832 362.000 C 86.584 362.000,87.200 362.180,87.200 362.400 C 87.200 362.620,87.740 362.800,88.400 362.800 C 89.060 362.800,89.600 362.980,89.600 363.200 C 89.600 363.420,90.140 363.600,90.800 363.600 C 91.460 363.600,92.000 363.780,92.000 364.000 C 92.000 364.220,92.450 364.400,93.000 364.400 C 93.550 364.400,94.000 364.580,94.000 364.800 C 94.000 365.020,94.540 365.200,95.200 365.200 C 95.860 365.200,96.400 365.380,96.400 365.600 C 96.400 365.820,96.940 366.000,97.600 366.000 C 98.260 366.000,98.800 366.180,98.800 366.400 C 98.800 366.620,99.340 366.800,100.000 366.800 C 100.660 366.800,101.200 366.980,101.200 367.200 C 101.200 367.420,101.740 367.600,102.400 367.600 C 103.060 367.600,103.600 367.780,103.600 368.000 C 103.600 368.220,104.140 368.400,104.800 368.400 C 105.460 368.400,106.000 368.580,106.000 368.800 C 106.000 369.020,106.540 369.200,107.200 369.200 C 107.860 369.200,108.400 369.341,108.400 369.513 C 108.400 369.685,108.887 369.866,109.482 369.915 C 110.078 369.964,110.744 370.184,110.962 370.402 C 111.181 370.621,111.763 370.800,112.256 370.800 C 112.749 370.800,113.264 370.980,113.400 371.200 C 113.536 371.420,114.076 371.600,114.600 371.600 C 115.124 371.600,115.664 371.780,115.800 372.000 C 115.936 372.220,116.577 372.400,117.224 372.400 C 117.871 372.400,118.400 372.580,118.400 372.800 C 118.400 373.020,118.940 373.200,119.600 373.200 C 120.260 373.200,120.800 373.380,120.800 373.600 C 120.800 373.820,121.340 374.000,122.000 374.000 C 122.660 374.000,123.200 374.159,123.200 374.354 C 123.200 374.549,124.190 374.832,125.400 374.983 C 126.610 375.134,127.600 375.425,127.600 375.629 C 127.600 375.833,128.140 376.000,128.800 376.000 C 129.460 376.000,130.000 376.180,130.000 376.400 C 130.000 376.620,130.540 376.800,131.200 376.800 C 131.860 376.800,132.400 376.980,132.400 377.200 C 132.400 377.420,132.940 377.600,133.600 377.600 C 134.260 377.600,134.800 377.780,134.800 378.000 C 134.800 378.220,135.340 378.400,136.000 378.400 C 136.660 378.400,137.200 378.580,137.200 378.800 C 137.200 379.020,137.740 379.200,138.400 379.200 C 139.060 379.200,139.600 379.380,139.600 379.600 C 139.600 379.820,140.140 380.000,140.800 380.000 C 141.460 380.000,142.000 380.180,142.000 380.400 C 142.000 380.620,142.540 380.800,143.200 380.800 C 143.860 380.800,144.400 380.980,144.400 381.200 C 144.400 381.420,144.929 381.600,145.576 381.600 C 146.223 381.600,146.864 381.780,147.000 382.000 C 147.136 382.220,147.777 382.400,148.424 382.400 C 149.071 382.400,149.600 382.580,149.600 382.800 C 149.600 383.020,150.140 383.200,150.800 383.200 C 151.460 383.200,152.000 383.380,152.000 383.600 C 152.000 383.820,152.540 384.000,153.200 384.000 C 153.860 384.000,154.400 384.180,154.400 384.400 C 154.400 384.620,154.940 384.800,155.600 384.800 C 156.260 384.800,156.800 384.980,156.800 385.200 C 156.800 385.420,157.340 385.600,158.000 385.600 C 158.660 385.600,159.200 385.780,159.200 386.000 C 159.200 386.220,159.639 386.400,160.176 386.400 C 160.713 386.400,161.264 386.580,161.400 386.800 C 161.536 387.020,162.076 387.200,162.600 387.200 C 163.124 387.200,163.664 387.380,163.800 387.600 C 163.936 387.820,164.476 388.000,165.000 388.000 C 165.524 388.000,166.064 388.180,166.200 388.400 C 166.336 388.620,166.876 388.800,167.400 388.800 C 167.924 388.800,168.464 388.980,168.600 389.200 C 168.736 389.420,169.220 389.600,169.675 389.600 C 170.131 389.600,171.751 390.050,173.275 390.600 C 174.800 391.150,176.577 391.600,177.224 391.600 C 177.871 391.600,178.400 391.780,178.400 392.000 C 178.400 392.220,178.940 392.400,179.600 392.400 C 180.260 392.400,180.800 392.580,180.800 392.800 C 180.800 393.020,181.340 393.200,182.000 393.200 C 182.660 393.200,183.200 393.380,183.200 393.600 C 183.200 393.820,183.740 394.000,184.400 394.000 C 185.060 394.000,185.600 394.180,185.600 394.400 C 185.600 394.620,186.140 394.800,186.800 394.800 C 187.460 394.800,188.000 394.980,188.000 395.200 C 188.000 395.420,188.540 395.600,189.200 395.600 C 189.860 395.600,190.400 395.780,190.400 396.000 C 190.400 396.220,190.940 396.400,191.600 396.400 C 192.260 396.400,192.800 396.580,192.800 396.800 C 192.800 397.020,193.239 397.200,193.776 397.200 C 194.313 397.200,194.864 397.380,195.000 397.600 C 195.136 397.820,195.687 398.000,196.224 398.000 C 196.761 398.000,197.200 398.180,197.200 398.400 C 197.200 398.634,198.541 398.800,200.424 398.800 C 202.471 398.800,203.557 398.654,203.400 398.400 C 203.256 398.167,203.655 398.000,204.353 398.000 C 205.013 398.000,205.664 397.820,205.800 397.600 C 205.936 397.380,206.476 397.200,207.000 397.200 C 207.524 397.200,208.064 397.020,208.200 396.800 C 208.336 396.580,208.887 396.400,209.424 396.400 C 209.961 396.400,210.400 396.220,210.400 396.000 C 210.400 395.780,210.940 395.600,211.600 395.600 C 212.260 395.600,212.800 395.420,212.800 395.200 C 212.800 394.980,213.340 394.800,214.000 394.800 C 214.660 394.800,215.200 394.620,215.200 394.400 C 215.200 394.180,215.740 394.000,216.400 394.000 C 217.060 394.000,217.600 393.820,217.600 393.600 C 217.600 393.380,218.140 393.200,218.800 393.200 C 219.460 393.200,220.000 393.020,220.000 392.800 C 220.000 392.580,220.540 392.400,221.200 392.400 C 221.860 392.400,222.400 392.220,222.400 392.000 C 222.400 391.780,222.934 391.600,223.586 391.600 C 224.800 391.600,228.049 390.682,229.295 389.987 C 229.677 389.774,230.431 389.600,230.971 389.600 C 231.511 389.600,232.064 389.420,232.200 389.200 C 232.336 388.980,232.876 388.800,233.400 388.800 C 233.924 388.800,234.464 388.620,234.600 388.400 C 234.736 388.180,235.276 388.000,235.800 388.000 C 236.324 388.000,236.864 387.820,237.000 387.600 C 237.136 387.380,237.676 387.200,238.200 387.200 C 238.724 387.200,239.264 387.020,239.400 386.800 C 239.536 386.580,240.087 386.400,240.624 386.400 C 241.161 386.400,241.600 386.220,241.600 386.000 C 241.600 385.780,242.140 385.600,242.800 385.600 C 243.460 385.600,244.000 385.420,244.000 385.200 C 244.000 384.980,244.540 384.800,245.200 384.800 C 245.860 384.800,246.400 384.620,246.400 384.400 C 246.400 384.180,246.940 384.000,247.600 384.000 C 248.260 384.000,248.800 383.820,248.800 383.600 C 248.800 383.380,249.340 383.200,250.000 383.200 C 250.660 383.200,251.200 383.020,251.200 382.800 C 251.200 382.580,251.729 382.400,252.376 382.400 C 253.023 382.400,253.664 382.220,253.800 382.000 C 253.936 381.780,254.577 381.600,255.224 381.600 C 255.871 381.600,256.400 381.420,256.400 381.200 C 256.400 380.980,256.940 380.800,257.600 380.800 C 258.260 380.800,258.800 380.620,258.800 380.400 C 258.800 380.180,259.340 380.000,260.000 380.000 C 260.660 380.000,261.200 379.820,261.200 379.600 C 261.200 379.380,261.639 379.200,262.176 379.200 C 262.713 379.200,263.264 379.020,263.400 378.800 C 263.536 378.580,264.177 378.400,264.824 378.400 C 265.471 378.400,266.000 378.220,266.000 378.000 C 266.000 377.780,266.540 377.600,267.200 377.600 C 267.860 377.600,268.400 377.420,268.400 377.200 C 268.400 376.980,268.940 376.800,269.600 376.800 C 270.260 376.800,270.800 376.620,270.800 376.400 C 270.800 376.180,271.340 376.000,272.000 376.000 C 272.660 376.000,273.200 375.833,273.200 375.629 C 273.200 375.425,274.190 375.134,275.400 374.983 C 276.610 374.832,277.600 374.549,277.600 374.354 C 277.600 374.159,278.140 374.000,278.800 374.000 C 279.460 374.000,280.000 373.820,280.000 373.600 C 280.000 373.380,280.540 373.200,281.200 373.200 C 281.860 373.200,282.400 373.020,282.400 372.800 C 282.400 372.580,282.691 372.400,283.047 372.400 C 283.764 372.400,288.601 370.911,289.695 370.354 C 290.077 370.159,290.842 370.000,291.395 370.000 C 291.948 370.000,292.400 369.820,292.400 369.600 C 292.400 369.380,292.839 369.200,293.376 369.200 C 293.913 369.200,294.464 369.020,294.600 368.800 C 294.736 368.580,295.377 368.400,296.024 368.400 C 296.671 368.400,297.200 368.220,297.200 368.000 C 297.200 367.780,297.740 367.600,298.400 367.600 C 299.060 367.600,299.600 367.420,299.600 367.200 C 299.600 366.980,300.039 366.800,300.576 366.800 C 301.113 366.800,301.664 366.620,301.800 366.400 C 301.936 366.180,302.577 366.000,303.224 366.000 C 303.871 366.000,304.400 365.820,304.400 365.600 C 304.400 365.380,304.951 365.200,305.624 365.200 C 306.337 365.200,306.744 365.033,306.600 364.800 C 306.456 364.567,306.863 364.400,307.576 364.400 C 308.249 364.400,308.800 364.220,308.800 364.000 C 308.800 363.780,309.340 363.600,310.000 363.600 C 310.660 363.600,311.200 363.420,311.200 363.200 C 311.200 362.980,311.740 362.800,312.400 362.800 C 313.060 362.800,313.600 362.620,313.600 362.400 C 313.600 362.180,314.208 362.000,314.952 362.000 C 316.432 362.000,318.831 360.025,320.233 357.652 C 320.640 356.964,321.114 356.400,321.286 356.400 C 321.459 356.400,321.600 356.145,321.600 355.833 C 321.600 355.522,321.737 355.207,321.905 355.133 C 322.386 354.923,325.200 350.847,325.200 350.360 C 325.200 350.118,325.740 349.417,326.400 348.800 C 327.060 348.183,327.600 347.463,327.600 347.200 C 327.600 346.937,328.140 346.217,328.800 345.600 C 329.460 344.983,330.000 344.231,330.000 343.928 C 330.000 343.625,330.360 343.117,330.800 342.800 C 331.240 342.483,331.600 341.993,331.600 341.712 C 331.600 341.430,331.735 341.199,331.900 341.197 C 332.065 341.196,332.650 340.524,333.200 339.704 C 333.750 338.884,334.695 337.689,335.300 337.047 C 335.905 336.406,336.400 335.678,336.400 335.429 C 336.400 335.180,336.760 334.717,337.200 334.400 C 337.640 334.083,338.000 333.585,338.000 333.294 C 338.000 333.002,338.450 332.314,339.000 331.764 C 339.550 331.214,340.000 330.619,340.000 330.443 C 340.000 330.161,340.447 329.549,341.993 327.717 C 342.217 327.451,342.400 326.996,342.400 326.705 C 342.400 326.414,342.760 325.917,343.200 325.600 C 343.640 325.283,344.000 324.881,344.000 324.708 C 344.000 324.535,344.540 323.828,345.200 323.137 C 345.860 322.446,346.400 321.718,346.400 321.519 C 346.400 321.320,346.939 320.581,347.598 319.878 C 348.257 319.175,348.797 318.415,348.798 318.188 C 348.799 317.962,349.160 317.517,349.600 317.200 C 350.040 316.883,350.400 316.375,350.400 316.072 C 350.400 315.769,350.940 315.017,351.600 314.400 C 352.260 313.783,352.800 313.073,352.800 312.821 C 352.800 312.570,353.250 311.914,353.800 311.364 C 354.350 310.814,354.800 310.205,354.800 310.010 C 354.800 309.816,355.025 309.419,355.300 309.127 C 356.341 308.025,358.800 304.655,358.800 304.331 C 358.800 304.145,359.340 303.428,360.000 302.737 C 360.660 302.046,361.200 301.278,361.200 301.029 C 361.200 300.780,361.560 300.317,362.000 300.000 C 362.440 299.683,362.800 299.191,362.800 298.908 C 362.800 298.625,363.340 297.828,364.000 297.137 C 364.660 296.446,365.200 295.726,365.200 295.537 C 365.200 295.348,365.740 294.628,366.400 293.937 C 367.060 293.246,367.600 292.530,367.600 292.345 C 367.600 292.010,368.017 291.461,370.094 289.063 C 370.695 288.368,371.190 287.678,371.194 287.529 C 371.197 287.379,371.428 287.019,371.707 286.729 C 372.695 285.698,375.200 281.992,375.200 281.560 C 375.200 281.318,375.740 280.617,376.400 280.000 C 377.060 279.383,377.600 278.673,377.600 278.421 C 377.600 278.170,378.005 277.544,378.500 277.032 C 379.974 275.507,380.800 274.416,380.800 273.995 C 380.800 273.778,380.980 273.600,381.200 273.600 C 381.420 273.600,381.600 273.418,381.600 273.196 C 381.600 272.974,382.140 272.228,382.800 271.537 C 383.460 270.846,384.000 270.078,384.000 269.829 C 384.000 269.580,384.360 269.117,384.800 268.800 C 385.240 268.483,385.600 267.991,385.600 267.708 C 385.600 267.425,386.140 266.628,386.800 265.937 C 387.460 265.246,388.000 264.478,388.000 264.229 C 388.000 263.980,388.360 263.517,388.800 263.200 C 389.594 262.628,389.600 262.165,389.600 200.400 C 389.600 138.635,389.594 138.172,388.800 137.600 C 388.360 137.283,388.000 136.838,387.999 136.612 C 387.999 136.385,387.459 135.570,386.800 134.800 C 386.141 134.030,385.601 133.215,385.601 132.988 C 385.600 132.762,385.240 132.317,384.800 132.000 C 384.360 131.683,384.000 131.220,384.000 130.971 C 384.000 130.722,383.505 129.994,382.900 129.352 C 382.295 128.711,381.548 127.700,381.240 127.107 C 380.932 126.513,380.527 126.122,380.340 126.237 C 380.153 126.353,380.000 126.193,380.000 125.883 C 380.000 125.573,379.460 124.754,378.800 124.063 C 378.140 123.372,377.600 122.608,377.600 122.364 C 377.600 122.120,377.060 121.417,376.400 120.800 C 375.740 120.183,375.200 119.545,375.200 119.381 C 375.200 118.958,372.313 114.627,371.923 114.467 C 371.745 114.393,371.600 114.105,371.600 113.826 C 371.600 113.547,371.060 112.754,370.400 112.063 C 369.740 111.372,369.200 110.626,369.200 110.404 C 369.200 110.182,369.059 110.000,368.886 110.000 C 368.714 110.000,368.251 109.455,367.857 108.789 C 367.464 108.123,366.705 107.141,366.171 106.607 C 365.637 106.073,365.200 105.475,365.200 105.278 C 365.200 105.080,364.660 104.354,364.000 103.663 C 363.340 102.972,362.800 102.175,362.800 101.892 C 362.800 101.609,362.440 101.117,362.000 100.800 C 361.560 100.483,361.200 100.020,361.200 99.771 C 361.200 99.522,360.660 98.754,360.000 98.063 C 359.340 97.372,358.800 96.604,358.800 96.356 C 358.800 96.108,358.305 95.323,357.700 94.610 C 355.744 92.306,355.271 91.680,354.768 90.732 C 354.497 90.219,353.943 89.509,353.537 89.153 C 353.132 88.797,352.800 88.284,352.800 88.014 C 352.800 87.743,352.260 87.017,351.600 86.400 C 350.940 85.783,350.400 85.031,350.400 84.728 C 350.400 84.425,350.040 83.917,349.600 83.600 C 349.160 83.283,348.800 82.820,348.800 82.571 C 348.800 82.322,348.260 81.554,347.600 80.863 C 346.940 80.172,346.400 79.452,346.400 79.263 C 346.400 79.074,345.860 78.354,345.200 77.663 C 344.540 76.972,344.000 76.265,344.000 76.092 C 344.000 75.919,343.640 75.517,343.200 75.200 C 342.760 74.883,342.400 74.303,342.400 73.912 C 342.400 73.520,342.265 73.200,342.100 73.199 C 341.935 73.199,341.080 72.119,340.200 70.800 C 339.320 69.481,338.465 68.401,338.300 68.401 C 338.135 68.400,338.000 68.080,338.000 67.688 C 338.000 67.297,337.640 66.717,337.200 66.400 C 336.760 66.083,336.399 65.638,336.398 65.412 C 336.397 65.185,335.857 64.425,335.198 63.722 C 334.539 63.019,333.999 62.299,333.998 62.122 C 333.997 61.945,333.457 61.225,332.798 60.522 C 332.139 59.819,331.600 59.093,331.600 58.910 C 331.600 58.727,331.240 58.317,330.800 58.000 C 330.360 57.683,330.000 57.175,330.000 56.872 C 330.000 56.569,329.460 55.817,328.800 55.200 C 328.140 54.583,327.600 53.831,327.600 53.528 C 327.600 53.225,327.240 52.717,326.800 52.400 C 326.360 52.083,326.000 51.631,326.000 51.397 C 326.000 51.162,325.467 50.347,324.816 49.585 C 324.165 48.823,323.625 48.018,323.616 47.796 C 323.607 47.574,323.195 46.940,322.700 46.387 C 322.205 45.834,321.174 44.486,320.410 43.391 C 318.774 41.048,317.402 39.600,316.818 39.600 C 316.588 39.600,316.400 39.420,316.400 39.200 C 316.400 38.980,315.770 38.800,315.000 38.800 C 314.230 38.800,313.600 38.620,313.600 38.400 C 313.600 38.180,313.060 38.000,312.400 38.000 C 311.740 38.000,311.200 37.820,311.200 37.600 C 311.200 37.380,310.660 37.200,310.000 37.200 C 309.340 37.200,308.800 37.020,308.800 36.800 C 308.800 36.580,308.361 36.400,307.824 36.400 C 307.287 36.400,306.736 36.220,306.600 36.000 C 306.464 35.780,305.913 35.600,305.376 35.600 C 304.839 35.600,304.400 35.420,304.400 35.200 C 304.400 34.980,303.860 34.800,303.200 34.800 C 302.540 34.800,302.000 34.620,302.000 34.400 C 302.000 34.180,301.460 34.000,300.800 34.000 C 300.140 34.000,299.600 33.820,299.600 33.600 C 299.600 33.380,299.060 33.200,298.400 33.200 C 297.740 33.200,297.200 33.020,297.200 32.800 C 297.200 32.580,296.660 32.400,296.000 32.400 C 295.340 32.400,294.800 32.220,294.800 32.000 C 294.800 31.780,294.260 31.600,293.600 31.600 C 292.940 31.600,292.400 31.458,292.400 31.285 C 292.400 31.112,291.998 30.940,291.507 30.903 C 291.016 30.866,290.251 30.673,289.807 30.473 C 288.461 29.869,286.184 29.200,285.472 29.200 C 285.102 29.200,284.800 29.020,284.800 28.800 C 284.800 28.580,284.260 28.400,283.600 28.400 C 282.940 28.400,282.400 28.220,282.400 28.000 C 282.400 27.780,281.860 27.600,281.200 27.600 C 280.540 27.600,280.000 27.420,280.000 27.200 C 280.000 26.980,279.460 26.800,278.800 26.800 C 278.140 26.800,277.600 26.605,277.600 26.367 C 277.600 26.128,277.375 26.013,277.100 26.110 C 276.825 26.208,275.738 25.953,274.685 25.544 C 273.632 25.135,272.327 24.800,271.785 24.800 C 271.243 24.800,270.800 24.620,270.800 24.400 C 270.800 24.180,270.271 24.000,269.624 24.000 C 268.977 24.000,268.336 23.820,268.200 23.600 C 268.064 23.380,267.513 23.200,266.976 23.200 C 266.439 23.200,266.000 23.020,266.000 22.800 C 266.000 22.580,265.460 22.400,264.800 22.400 C 264.140 22.400,263.600 22.220,263.600 22.000 C 263.600 21.780,263.060 21.600,262.400 21.600 C 261.740 21.600,261.200 21.420,261.200 21.200 C 261.200 20.980,260.660 20.800,260.000 20.800 C 259.340 20.800,258.800 20.620,258.800 20.400 C 258.800 20.180,258.271 20.000,257.624 20.000 C 256.977 20.000,256.336 19.820,256.200 19.600 C 256.064 19.380,255.423 19.200,254.776 19.200 C 254.129 19.200,253.600 19.020,253.600 18.800 C 253.600 18.580,253.060 18.400,252.400 18.400 C 251.740 18.400,251.200 18.220,251.200 18.000 C 251.200 17.780,250.660 17.600,250.000 17.600 C 249.340 17.600,248.800 17.420,248.800 17.200 C 248.800 16.980,248.260 16.800,247.600 16.800 C 246.940 16.800,246.400 16.620,246.400 16.400 C 246.400 16.180,245.860 16.000,245.200 16.000 C 244.540 16.000,244.000 15.820,244.000 15.600 C 244.000 15.380,243.460 15.200,242.800 15.200 C 242.140 15.200,241.600 15.020,241.600 14.800 C 241.600 14.580,241.161 14.400,240.624 14.400 C 240.087 14.400,239.536 14.220,239.400 14.000 C 239.264 13.780,238.724 13.600,238.200 13.600 C 237.676 13.600,237.136 13.420,237.000 13.200 C 236.864 12.980,236.223 12.800,235.576 12.800 C 234.929 12.800,234.400 12.620,234.400 12.400 C 234.400 12.180,233.860 12.000,233.200 12.000 C 232.540 12.000,232.000 11.820,232.000 11.600 C 232.000 11.380,231.682 11.200,231.294 11.200 C 230.906 11.200,229.646 10.856,228.494 10.434 C 227.342 10.013,226.400 9.748,226.400 9.845 C 226.400 9.941,225.888 9.756,225.263 9.432 C 224.637 9.109,223.197 8.721,222.063 8.571 C 220.928 8.420,220.000 8.140,220.000 7.948 C 220.000 7.757,219.460 7.600,218.800 7.600 C 218.140 7.600,217.600 7.420,217.600 7.200 C 217.600 6.980,217.060 6.800,216.400 6.800 C 215.740 6.800,215.200 6.620,215.200 6.400 C 215.200 6.180,214.660 6.000,214.000 6.000 C 213.340 6.000,212.800 5.820,212.800 5.600 C 212.800 5.380,212.260 5.200,211.600 5.200 C 210.940 5.200,210.400 5.020,210.400 4.800 C 210.400 4.580,209.860 4.400,209.200 4.400 C 208.540 4.400,208.000 4.220,208.000 4.000 C 208.000 3.780,207.561 3.600,207.024 3.600 C 206.487 3.600,205.936 3.420,205.800 3.200 C 205.664 2.980,205.124 2.800,204.600 2.800 C 204.076 2.800,203.536 2.620,203.400 2.400 C 203.264 2.180,201.813 2.000,200.176 2.000 C 198.459 2.000,197.200 2.169,197.200 2.400 M268.200 85.177 C 285.520 89.763,295.489 101.560,299.659 122.400 C 300.345 125.832,300.347 140.335,299.662 144.600 C 293.722 181.572,266.431 220.332,235.239 236.097 C 231.025 238.227,229.200 240.316,229.200 243.011 C 229.200 243.335,229.020 243.600,228.800 243.600 C 228.580 243.600,228.400 243.872,228.400 244.205 C 228.400 244.538,228.230 245.123,228.022 245.505 C 227.814 245.887,226.460 248.630,225.013 251.600 C 222.225 257.323,221.679 258.318,218.150 264.127 C 216.226 267.294,210.656 275.409,210.001 276.000 C 209.879 276.110,209.154 277.010,208.390 278.000 C 204.416 283.146,195.050 292.928,191.600 295.534 C 190.830 296.115,189.930 296.872,189.600 297.215 C 188.092 298.784,179.618 304.701,176.400 306.432 C 175.410 306.964,174.510 307.504,174.400 307.631 C 174.107 307.969,166.038 311.805,164.400 312.385 C 163.630 312.658,162.640 313.024,162.200 313.200 C 154.767 316.166,140.197 317.353,134.000 315.496 C 132.790 315.133,131.350 314.723,130.800 314.585 C 128.211 313.933,122.622 311.152,119.859 309.140 C 116.140 306.432,108.400 297.594,108.400 296.055 C 108.400 295.842,108.265 295.607,108.100 295.533 C 107.460 295.249,104.878 289.293,103.706 285.400 C 101.376 277.660,101.003 274.845,101.001 265.000 C 101.000 255.502,101.442 251.738,103.655 242.400 C 104.098 240.530,104.603 238.640,104.778 238.200 C 104.952 237.760,105.488 236.140,105.968 234.600 C 106.822 231.860,107.336 230.503,108.047 229.105 C 108.241 228.723,108.400 228.155,108.400 227.843 C 108.400 227.531,108.786 226.494,109.257 225.538 C 109.728 224.582,110.246 223.440,110.409 223.000 C 112.237 218.048,122.388 200.189,123.672 199.667 C 123.853 199.593,124.000 199.370,124.000 199.171 C 124.000 198.972,124.262 198.492,124.581 198.105 C 124.901 197.717,126.078 196.230,127.196 194.800 C 130.881 190.089,132.520 188.254,137.387 183.389 C 142.044 178.734,146.204 174.956,148.088 173.669 C 148.590 173.327,149.090 172.923,149.200 172.773 C 149.902 171.813,159.287 166.053,163.524 163.981 C 166.316 162.616,169.021 161.281,169.535 161.014 C 170.228 160.655,171.027 159.118,172.609 155.104 C 186.985 118.630,216.667 90.600,247.000 84.853 C 252.865 83.741,263.386 83.902,268.200 85.177 " stroke="none" fill="#4494db" fill-rule="evenodd"></path><path id="path2" d="M167.553 162.554 C 164.856 163.651,158.826 166.877,156.528 168.453 C 155.608 169.084,154.755 169.600,154.633 169.600 C 154.510 169.600,154.092 169.856,153.705 170.169 C 153.317 170.482,151.110 172.142,148.800 173.859 C 144.832 176.809,133.636 187.523,130.889 191.000 C 130.194 191.880,128.447 194.130,127.009 196.000 C 125.570 197.870,124.252 199.580,124.080 199.800 C 123.311 200.782,121.225 203.929,120.498 205.202 C 120.059 205.971,118.926 207.860,117.981 209.400 C 112.798 217.847,106.644 232.541,104.454 241.700 C 103.381 246.189,102.633 250.050,102.018 254.277 C 101.479 257.983,101.476 272.357,102.013 275.433 C 103.461 283.718,104.260 286.362,107.476 293.500 C 112.242 304.080,122.561 312.106,135.306 315.145 C 137.580 315.688,150.296 315.754,152.354 315.235 C 153.149 315.034,154.790 314.654,156.000 314.391 C 170.504 311.238,189.383 298.958,202.415 284.200 C 211.965 273.385,217.797 264.775,224.256 251.956 C 225.875 248.741,227.200 246.001,227.200 245.866 C 227.200 245.731,227.740 244.441,228.400 243.000 C 230.360 238.721,230.289 238.657,225.468 240.343 C 196.394 250.508,171.213 235.784,166.050 205.600 C 164.983 199.363,164.800 197.438,164.800 192.484 C 164.800 185.265,166.070 175.970,168.008 169.000 C 168.253 168.120,168.604 166.770,168.789 166.000 C 168.974 165.230,169.319 163.982,169.556 163.226 C 170.107 161.469,170.170 161.491,167.553 162.554 " stroke="none" fill="#fbbc24" fill-rule="evenodd"></path><path id="path3" d="M188.400 156.873 C 183.131 157.499,178.972 158.392,174.444 159.868 C 169.809 161.379,170.106 160.994,168.326 167.800 C 168.096 168.680,167.767 169.850,167.596 170.400 C 167.041 172.180,165.926 178.578,165.205 184.116 C 164.685 188.116,164.684 196.973,165.203 200.367 C 166.811 210.883,167.811 214.364,171.186 221.200 C 176.084 231.123,185.468 239.141,195.374 241.869 C 205.052 244.535,213.775 244.133,225.000 240.506 C 227.420 239.724,229.598 238.886,229.840 238.642 C 231.163 237.311,234.381 225.936,235.567 218.400 C 241.496 180.717,220.309 153.078,188.400 156.873 " stroke="none" fill="#fbfbbb" fill-rule="evenodd"></path><path id="path4" d="M186.600 156.800 C 184.680 157.063,184.664 157.076,186.200 157.108 C 187.080 157.126,188.610 156.997,189.600 156.820 C 191.970 156.399,189.641 156.383,186.600 156.800 M197.600 156.820 C 198.590 156.997,200.030 157.130,200.800 157.117 C 201.945 157.097,201.835 157.036,200.200 156.782 C 197.453 156.354,195.169 156.388,197.600 156.820 M181.800 157.600 C 180.711 157.877,180.693 157.907,181.600 157.925 C 182.150 157.935,182.960 157.789,183.400 157.600 C 184.386 157.176,183.466 157.176,181.800 157.600 M203.600 157.653 C 204.370 157.886,206.303 158.489,207.895 158.992 C 209.488 159.496,210.709 159.776,210.609 159.614 C 210.383 159.248,205.492 157.734,203.600 157.444 L 202.200 157.229 203.600 157.653 M169.501 161.035 C 169.006 161.290,166.316 162.616,163.524 163.981 C 159.287 166.053,149.902 171.813,149.200 172.773 C 149.090 172.923,148.590 173.327,148.088 173.669 C 146.204 174.956,142.044 178.734,137.387 183.389 C 132.520 188.254,130.881 190.089,127.196 194.800 C 126.078 196.230,124.901 197.717,124.581 198.105 C 124.262 198.492,124.000 198.972,124.000 199.171 C 124.000 199.370,123.853 199.593,123.672 199.667 C 122.388 200.189,112.237 218.048,110.409 223.000 C 110.246 223.440,109.728 224.582,109.257 225.538 C 108.786 226.494,108.400 227.531,108.400 227.843 C 108.400 228.155,108.241 228.723,108.047 229.105 C 107.336 230.503,106.822 231.860,105.968 234.600 C 105.488 236.140,104.952 237.760,104.778 238.200 C 104.603 238.640,104.098 240.530,103.655 242.400 C 101.442 251.738,101.000 255.502,101.001 265.000 C 101.003 274.845,101.376 277.660,103.706 285.400 C 104.878 289.293,107.460 295.249,108.100 295.533 C 108.265 295.607,108.400 295.842,108.400 296.055 C 108.400 297.594,116.140 306.432,119.859 309.140 C 122.622 311.152,128.211 313.933,130.800 314.585 C 131.350 314.723,132.790 315.133,134.000 315.496 C 140.197 317.353,154.767 316.166,162.200 313.200 C 162.640 313.024,163.630 312.658,164.400 312.385 C 166.038 311.805,174.107 307.969,174.400 307.631 C 174.510 307.504,175.410 306.964,176.400 306.432 C 179.618 304.701,188.092 298.784,189.600 297.215 C 189.930 296.872,190.830 296.115,191.600 295.534 C 195.050 292.928,204.416 283.146,208.390 278.000 C 209.154 277.010,209.879 276.110,210.001 276.000 C 210.656 275.409,216.226 267.294,218.150 264.127 C 221.679 258.318,222.225 257.323,225.013 251.600 C 226.460 248.630,227.814 245.887,228.022 245.505 C 228.230 245.123,228.400 244.538,228.400 244.205 C 228.400 243.872,228.580 243.600,228.800 243.600 C 229.020 243.600,229.200 243.345,229.200 243.033 C 229.200 242.721,229.576 241.596,230.036 240.533 C 231.213 237.809,231.499 235.519,230.380 237.771 C 229.951 238.636,229.600 239.576,229.600 239.861 C 229.600 240.147,229.060 241.559,228.400 243.000 C 227.740 244.441,227.200 245.731,227.200 245.866 C 227.200 247.152,219.198 261.760,215.513 267.200 C 210.979 273.894,209.842 275.424,206.014 279.992 C 193.799 294.564,180.885 304.576,165.600 311.323 C 163.506 312.247,158.493 313.849,156.000 314.391 C 154.790 314.654,153.149 315.034,152.354 315.235 C 150.296 315.754,137.580 315.688,135.306 315.145 C 122.510 312.094,112.266 304.103,107.428 293.400 C 104.294 286.466,103.453 283.677,102.013 275.433 C 101.476 272.357,101.479 257.983,102.018 254.277 C 103.919 241.207,107.584 229.566,113.564 217.600 C 115.049 214.630,117.036 210.940,117.981 209.400 C 118.926 207.860,120.059 205.971,120.498 205.202 C 121.225 203.929,123.311 200.782,124.080 199.800 C 124.252 199.580,125.570 197.870,127.009 196.000 C 128.447 194.130,130.194 191.880,130.889 191.000 C 133.636 187.523,144.832 176.809,148.800 173.859 C 151.110 172.142,153.284 170.527,153.630 170.269 C 153.977 170.011,154.697 169.541,155.230 169.224 C 155.764 168.908,157.370 167.933,158.800 167.059 C 161.057 165.679,164.257 164.090,170.600 161.198 C 171.708 160.693,171.924 160.484,171.301 160.519 C 170.807 160.547,169.997 160.779,169.501 161.035 M213.600 161.220 C 214.987 162.161,215.778 162.435,214.800 161.636 C 214.250 161.186,213.620 160.817,213.400 160.815 C 213.180 160.813,213.270 160.996,213.600 161.220 M218.400 164.125 C 218.400 164.223,219.255 164.991,220.300 165.832 C 221.345 166.672,221.840 166.945,221.400 166.437 C 220.574 165.483,218.400 163.808,218.400 164.125 M224.000 169.064 C 224.000 169.282,224.495 169.897,225.100 170.430 L 226.200 171.400 225.200 170.200 C 224.650 169.540,224.155 168.925,224.100 168.833 C 224.045 168.742,224.000 168.845,224.000 169.064 M227.454 173.600 C 229.262 176.274,229.985 177.077,228.957 175.270 C 228.541 174.538,227.697 173.368,227.083 172.670 C 226.276 171.752,226.379 172.010,227.454 173.600 M229.600 176.939 C 229.600 177.366,230.914 179.619,231.071 179.462 C 231.277 179.256,230.095 176.800,229.790 176.800 C 229.685 176.800,229.600 176.862,229.600 176.939 M234.456 188.800 C 234.456 189.130,234.611 189.760,234.800 190.200 C 235.017 190.704,235.144 190.778,235.144 190.400 C 235.144 190.070,234.989 189.440,234.800 189.000 C 234.583 188.496,234.456 188.422,234.456 188.800 M235.280 192.200 C 235.280 192.640,235.424 193.450,235.600 194.000 C 235.854 194.792,235.920 194.833,235.920 194.200 C 235.920 193.760,235.776 192.950,235.600 192.400 C 235.346 191.608,235.280 191.567,235.280 192.200 M236.279 199.600 C 236.402 201.470,236.570 203.075,236.651 203.167 C 236.939 203.489,236.750 199.382,236.405 197.800 C 236.156 196.657,236.120 197.172,236.279 199.600 M236.273 211.760 C 236.115 213.718,236.063 215.396,236.156 215.489 C 236.403 215.736,236.912 209.863,236.722 208.962 C 236.633 208.543,236.431 209.802,236.273 211.760 M235.440 218.840 C 235.293 219.757,235.252 220.585,235.347 220.680 C 235.442 220.776,235.646 220.110,235.800 219.200 C 235.954 218.290,235.996 217.462,235.893 217.360 C 235.790 217.257,235.587 217.923,235.440 218.840 M234.600 223.200 C 234.448 223.891,234.414 224.547,234.524 224.657 C 234.634 224.767,234.848 224.291,235.000 223.600 C 235.152 222.909,235.186 222.253,235.076 222.143 C 234.966 222.033,234.752 222.509,234.600 223.200 M233.829 226.629 C 233.681 227.215,233.638 227.772,233.732 227.866 C 233.827 227.960,234.024 227.558,234.171 226.971 C 234.319 226.385,234.362 225.828,234.268 225.734 C 234.173 225.640,233.976 226.042,233.829 226.629 " stroke="none" fill="#84ada8" fill-rule="evenodd"></path></g></svg>